<?xml version="1.0" encoding="utf-8"?>
<!-- Generator: Adobe Illustrator 24.2.1, SVG Export Plug-In . SVG Version: 6.00 Build 0)  -->
<svg version="1.1" id="Layer_1" xmlns="http://www.w3.org/2000/svg" xmlns:xlink="http://www.w3.org/1999/xlink" x="0px" y="0px"
	 viewBox="0 0 268.1 176.2" style="enable-background:new 0 0 268.1 176.2;" xml:space="preserve">
<g>
	<path d="M29.3,29.6l0.7,119c0.1,12.2-9.7,22.1-21.9,22.1h0l-0.7-119C7.4,39.6,17.2,29.7,29.3,29.6L29.3,29.6z"/>
	<path d="M260.7,33.1l0.7,119c0.1,12.2-9.7,22.1-21.9,22.1h0l-0.7-119C238.8,43.1,248.6,33.2,260.7,33.1L260.7,33.1z"/>
	<rect x="205.3" y="87.2" transform="matrix(-1 5.956831e-03 -5.956831e-03 -1 440.49 195.0518)" width="29.4" height="22"/>
	<rect x="33.4" y="87" transform="matrix(-1 5.956831e-03 -5.956831e-03 -1 100.1642 195.7093)" width="32.7" height="22"/>
	<g>
		<path d="M88.4,79.7c-1.1-3.8-2.9-8.2-8.1-8.2c-4.6,0-6.8,3.2-6.8,6.5c0,4.2,2.8,6.3,7.8,8.7c5.2,2.5,10.6,5.4,10.6,12
			c0,6.4-5.5,11.5-13.8,11.5c-2.5,0-4.6-0.5-6.1-1c-1.6-0.5-2.4-1-3-1.3c-0.4-1.2-1.3-6.6-1.7-9.5l1.8-0.5c1,3.8,4,10.1,10.3,10.1
			c4.5,0,7.1-2.7,7.1-7c0-4.3-3.3-6.4-7.9-8.8c-4.3-2.1-10.1-5.1-10.1-11.7c0-6,4.8-10.9,12.8-10.9c2.9,0,5.6,0.7,7.9,1.4
			c0.2,2.1,0.5,4.6,1.1,8.5L88.4,79.7z"/>
		<path d="M130,109.3v-1.6c3.4-0.4,4.1-0.7,4.1-4.9v-9.7c0-4.5-1.7-6.9-5.2-6.9c-2,0-4.2,1.1-6.5,3c0.1,0.7,0.2,1.4,0.2,2.5v11.5
			c0,3.8,0.6,4.1,3.9,4.5v1.6h-13.4v-1.6c3.6-0.4,4.2-0.7,4.2-4.6V93c0-4.5-1.7-6.8-5.2-6.8c-2.3,0-4.5,1.5-6.4,2.9v14
			c0,3.8,0.5,4.2,3.3,4.6v1.6H95.9v-1.6c3.9-0.4,4.5-0.7,4.5-4.7V90.8c0-3.8-0.2-4.2-3.7-4.7v-1.5c2.6-0.4,6-1.2,8.9-2.4v4.9
			c1.3-0.9,2.6-2,4.5-3.1c1.6-1,3.1-1.6,5-1.6c2.9,0,5.5,1.8,6.8,4.9c1.8-1.3,3.5-2.4,5-3.4c1.3-0.8,2.9-1.5,4.6-1.5
			c4.8,0,7.9,3.3,7.9,9.3v11.3c0,4,0.4,4.1,3.9,4.6v1.6H130z"/>
		<path d="M166.1,110c-1.1,0-2.5-0.5-3.1-1.2c-0.8-0.8-1.2-1.6-1.5-2.5c-2.5,1.6-5.3,3.7-7,3.7c-4.5,0-7.5-3.6-7.5-7.4
			c0-3,1.6-4.8,5-5.9c3.9-1.2,8.1-2.8,9.4-3.9v-1.1c0-4.3-2-6.6-4.9-6.6c-1.1,0-2,0.4-2.6,1.1c-0.8,0.8-1.3,2.1-1.8,4.1
			c-0.4,1.1-1,1.5-2,1.5c-1.2,0-2.8-1.2-2.8-2.7c0-0.9,0.8-1.6,2-2.5c1.8-1.3,5.9-3.6,9.3-4.2c1.9,0,3.7,0.5,5.1,1.5
			c2.3,1.9,2.9,4.4,2.9,7.6v10.8c0,2.7,1.1,3.6,2.2,3.6c0.7,0,1.5-0.3,2.2-0.7l0.6,1.6L166.1,110z M161.3,94.9
			c-1.2,0.6-3.7,1.8-5,2.3c-2.4,1-3.7,2.2-3.7,4.4c0,3.2,2.4,4.5,4.2,4.5c1.4,0,3.4-0.9,4.5-2V94.9z"/>
		<path d="M173.7,109.3v-1.6c3.8-0.4,4.3-0.7,4.3-4.9v-12c0-3.8-0.2-4.1-3.8-4.7v-1.4c3.3-0.5,6.3-1.2,9.1-2.3v20.4
			c0,4.1,0.4,4.5,4.3,4.9v1.6H173.7z M176.9,74.1c0-1.9,1.6-3.4,3.4-3.4c1.8,0,3.2,1.4,3.2,3.4c0,1.7-1.4,3.2-3.3,3.2
			C178.4,77.4,176.9,75.9,176.9,74.1z"/>
		<path d="M189.3,109.3v-1.6c3.8-0.5,4.3-0.8,4.3-4.8V74.8c0-4.1-0.4-4.2-4.2-4.5v-1.5c3.3-0.4,7.2-1.4,9.4-2.1v36.2
			c0,4.1,0.5,4.4,4.5,4.8v1.6H189.3z"/>
	</g>
</g>
<path d="M163.8,46.3c-17.1-8.4-32.7-15.9-48.1-23.8c-6.7-3.4-10.3-9.2-10.6-17.8c2.3,0.7,3.9,0.9,5.2,1.6c14,7,27.9,14,41.9,21.1
	C159.3,31,163.5,36.7,163.8,46.3z"/>
<path d="M121,31.1c9.3,4.5,18.6,9,29.2,14.1c-10.1,8.4-19.1,15.8-28.1,23.2c-0.6-0.4-1.2-0.7-1.8-1.1c2-4.1,3.9-8.3,6.1-12.3
	c2-3.6,2.2-6.1-1.1-9.6c-3.1-3.3-4.5-8-6.7-12.1C119.5,32.5,120.3,31.8,121,31.1z"/>
</svg>
